<?xml version="1.0" encoding="UTF-8"?>
<svg id="Layer_2" data-name="Layer 2" xmlns="http://www.w3.org/2000/svg" viewBox="0 0 26.6 86.72">
  <defs>
    <style>
      .cls-1 {
        fill: #231f20;
      }

      .cls-2 {
        fill: none;
        stroke: #231f20;
        stroke-miterlimit: 10;
        stroke-width: .25px;
      }
    </style>
  </defs>
  <g id="Layer_1-2" data-name="Layer 1">
    <circle class="cls-2" cx="7.52" cy="27.73" r="7.4"/>
    <circle class="cls-2" cx="7.59" cy="27.58" r="6.61"/>
    <g>
      <ellipse class="cls-2" cx="6.26" cy="36.13" rx="1.04" ry="2.64"/>
      <ellipse class="cls-2" cx="6.26" cy="39.46" rx="1.04" ry="2.64"/>
      <ellipse class="cls-2" cx="6.26" cy="42.79" rx="1.04" ry="2.64"/>
      <ellipse class="cls-2" cx="6.26" cy="46.12" rx="1.04" ry="2.64"/>
      <ellipse class="cls-2" cx="6.26" cy="49.45" rx="1.04" ry="2.64"/>
      <ellipse class="cls-2" cx="6.26" cy="52.78" rx="1.04" ry="2.64"/>
      <ellipse class="cls-2" cx="6.26" cy="56.11" rx="1.04" ry="2.64"/>
    </g>
    <path class="cls-1" d="M7.51,0h19.09v19.34c0,3.02-2.45,5.47-5.47,5.47H7.51c-3.02,0-5.47-2.45-5.47-5.47V5.47C2.04,2.45,4.49,0,7.51,0ZM7.52,23.24c1.6,0,2.9-1.3,2.9-2.9s-1.3-2.9-2.9-2.9-2.9,1.3-2.9,2.9,1.3,2.9,2.9,2.9Z"/>
    <path d="M4.06,58.58c.05-.86.79-1.51,1.64-1.45l5.82.36c.86.05,1.51.79,1.45,1.64l-.95,15.42-5-.31-.32,5.21,5,.31-.34,5.51c-.05.86-.79,1.51-1.64,1.45l-5.82-.36c-.86-.05-1.51-.79-1.45-1.64l1.61-26.14ZM5.9,59.16c.23.43.77.61,1.22.39.45-.21.63-.74.41-1.17-.23-.43-.77-.61-1.22-.39s-.63.74-.41,1.17Z"/>
  </g>
</svg>